<svg width="800" height="80" viewBox="0 0 800 80" fill="none" xmlns="http://www.w3.org/2000/svg">
<g clip-path="url(#clip0_27_2)">
<rect width="800" height="80" fill="url(#paint0_linear_27_2)"/>
<path d="M25.2756 53V26.8182H42.6108V31.3821H30.8111V37.6207H41.4602V42.1847H30.8111V53H25.2756ZM46.2319 53V33.3636H51.6779V53H46.2319ZM48.9677 30.8324C48.158 30.8324 47.4634 30.5639 46.8839 30.027C46.3129 29.4815 46.0273 28.8295 46.0273 28.071C46.0273 27.321 46.3129 26.6776 46.8839 26.1406C47.4634 25.5952 48.158 25.3224 48.9677 25.3224C49.7773 25.3224 50.4677 25.5952 51.0387 26.1406C51.6183 26.6776 51.908 27.321 51.908 28.071C51.908 28.8295 51.6183 29.4815 51.0387 30.027C50.4677 30.5639 49.7773 30.8324 48.9677 30.8324ZM61.4865 41.6477V53H56.0405V33.3636H61.2308V36.8281H61.4609C61.8956 35.6861 62.6243 34.7827 63.647 34.1179C64.6697 33.4446 65.9098 33.108 67.3672 33.108C68.7308 33.108 69.9197 33.4062 70.9339 34.0028C71.9482 34.5994 72.7365 35.4517 73.299 36.5597C73.8615 37.6591 74.1428 38.9716 74.1428 40.4972V53H68.6967V41.4688C68.7053 40.267 68.3984 39.3295 67.7763 38.6562C67.1541 37.9744 66.2976 37.6335 65.2067 37.6335C64.4737 37.6335 63.826 37.7912 63.2635 38.1065C62.7095 38.4219 62.2749 38.8821 61.9595 39.4872C61.6527 40.0838 61.495 40.804 61.4865 41.6477ZM85.6708 53.3196C84.1793 53.3196 82.8285 52.9361 81.6183 52.169C80.4165 51.3935 79.462 50.2557 78.7546 48.7557C78.0558 47.2472 77.7063 45.3977 77.7063 43.2074C77.7063 40.9574 78.0685 39.0866 78.793 37.5952C79.5174 36.0952 80.4805 34.9744 81.6822 34.233C82.8924 33.483 84.2177 33.108 85.658 33.108C86.7575 33.108 87.6737 33.2955 88.4066 33.6705C89.1481 34.0369 89.7447 34.4972 90.1964 35.0511C90.6566 35.5966 91.006 36.1335 91.2447 36.6619H91.4109V26.8182H96.8441V53H91.4748V49.8551H91.2447C90.989 50.4006 90.6268 50.9418 90.158 51.4787C89.6978 52.0071 89.0969 52.446 88.3555 52.7955C87.6225 53.1449 86.7276 53.3196 85.6708 53.3196ZM87.3967 48.9858C88.2745 48.9858 89.016 48.7472 89.6211 48.2699C90.2347 47.7841 90.7035 47.1065 91.0273 46.2372C91.3597 45.3679 91.5259 44.3494 91.5259 43.1818C91.5259 42.0142 91.364 41 91.0401 40.1392C90.7163 39.2784 90.2475 38.6136 89.6339 38.1449C89.0202 37.6761 88.2745 37.4418 87.3967 37.4418C86.5018 37.4418 85.7475 37.6847 85.1339 38.1705C84.5202 38.6562 84.0558 39.3295 83.7404 40.1903C83.4251 41.0511 83.2674 42.0483 83.2674 43.1818C83.2674 44.3239 83.4251 45.3338 83.7404 46.2116C84.0643 47.081 84.5288 47.7628 85.1339 48.2571C85.7475 48.7429 86.5018 48.9858 87.3967 48.9858ZM110.271 53.3835C108.251 53.3835 106.512 52.9744 105.055 52.1562C103.606 51.3295 102.489 50.1619 101.705 48.6534C100.921 47.1364 100.529 45.3423 100.529 43.2713C100.529 41.2514 100.921 39.4787 101.705 37.9531C102.489 36.4276 103.593 35.2386 105.016 34.3864C106.448 33.5341 108.127 33.108 110.053 33.108C111.349 33.108 112.555 33.3168 113.671 33.7344C114.796 34.1435 115.776 34.7614 116.612 35.5881C117.455 36.4148 118.112 37.4545 118.58 38.7074C119.049 39.9517 119.283 41.4091 119.283 43.0795V44.5753H102.702V41.2003H114.157C114.157 40.4162 113.987 39.7216 113.646 39.1165C113.305 38.5114 112.832 38.0384 112.227 37.6974C111.63 37.348 110.935 37.1733 110.143 37.1733C109.316 37.1733 108.583 37.3651 107.944 37.7486C107.313 38.1236 106.819 38.6307 106.461 39.2699C106.103 39.9006 105.92 40.6037 105.911 41.3793V44.5881C105.911 45.5597 106.09 46.3991 106.448 47.1065C106.815 47.8139 107.33 48.3594 107.995 48.7429C108.66 49.1264 109.448 49.3182 110.36 49.3182C110.965 49.3182 111.519 49.233 112.022 49.0625C112.525 48.892 112.955 48.6364 113.313 48.2955C113.671 47.9545 113.944 47.5369 114.131 47.0426L119.168 47.375C118.913 48.5852 118.388 49.642 117.596 50.5455C116.812 51.4403 115.798 52.1392 114.553 52.642C113.317 53.1364 111.89 53.3835 110.271 53.3835ZM122.837 53V33.3636H128.117V36.7898H128.322C128.68 35.571 129.281 34.6506 130.124 34.0284C130.968 33.3977 131.94 33.0824 133.039 33.0824C133.312 33.0824 133.606 33.0994 133.921 33.1335C134.237 33.1676 134.513 33.2145 134.752 33.2741V38.1065C134.496 38.0298 134.143 37.9616 133.691 37.902C133.239 37.8423 132.826 37.8125 132.451 37.8125C131.65 37.8125 130.934 37.9872 130.303 38.3366C129.681 38.6776 129.187 39.1548 128.82 39.7685C128.462 40.3821 128.283 41.0895 128.283 41.8906V53H122.837ZM137.67 53V26.8182H155.005V31.3821H143.206V37.6207H153.855V42.1847H143.206V53H137.67ZM166.057 53.3835C164.071 53.3835 162.354 52.9616 160.905 52.1179C159.465 51.2656 158.353 50.081 157.569 48.5639C156.784 47.0384 156.392 45.2699 156.392 43.2585C156.392 41.2301 156.784 39.4574 157.569 37.9403C158.353 36.4148 159.465 35.2301 160.905 34.3864C162.354 33.5341 164.071 33.108 166.057 33.108C168.043 33.108 169.756 33.5341 171.196 34.3864C172.645 35.2301 173.762 36.4148 174.546 37.9403C175.33 39.4574 175.722 41.2301 175.722 43.2585C175.722 45.2699 175.33 47.0384 174.546 48.5639C173.762 50.081 172.645 51.2656 171.196 52.1179C169.756 52.9616 168.043 53.3835 166.057 53.3835ZM166.083 49.1648C166.986 49.1648 167.74 48.9091 168.346 48.3977C168.951 47.8778 169.407 47.1705 169.713 46.2756C170.029 45.3807 170.186 44.3622 170.186 43.2202C170.186 42.0781 170.029 41.0597 169.713 40.1648C169.407 39.2699 168.951 38.5625 168.346 38.0426C167.74 37.5227 166.986 37.2628 166.083 37.2628C165.171 37.2628 164.404 37.5227 163.782 38.0426C163.168 38.5625 162.703 39.2699 162.388 40.1648C162.081 41.0597 161.928 42.0781 161.928 43.2202C161.928 44.3622 162.081 45.3807 162.388 46.2756C162.703 47.1705 163.168 47.8778 163.782 48.3977C164.404 48.9091 165.171 49.1648 166.083 49.1648ZM183.111 33.3636L186.716 40.2287L190.411 33.3636H195.998L190.309 43.1818L196.151 53H190.59L186.716 46.2116L182.907 53H177.282L183.111 43.1818L177.486 33.3636H183.111Z" fill="white"/>
<path d="M725.479 31.7929L747.06 -16.4503C749.278 -21.4086 745.638 -27 740.192 -27H677.52C673.367 -27 670 -23.6437 670 -19.5035V99.5035C670 103.644 673.367 107 677.52 107H744.26C748.413 107 751.78 103.644 751.78 99.5035M725.479 31.7929C723.261 36.7512 726.901 42.3427 732.347 42.3427H744.26C748.413 42.3427 751.78 45.699 751.78 49.8392V99.5035M725.479 31.7929C723.647 35.8904 725.815 40.4159 729.697 41.865C732.725 39.9642 737.211 38.4114 743.797 38.4114C745.662 38.4114 750.835 33.2632 751.016 31.8263C751.016 31.2875 740.549 27.1569 736.459 23.1457C734.233 20.9906 733.21 19.9726 732.308 19.1943C732.028 18.9505 731.726 18.7285 731.417 18.5134L725.479 31.7929ZM751.78 99.5035C751.78 100.869 751.41 102.147 750.77 103.25C750.792 103.25 750.814 103.252 750.836 103.252C780.733 103.252 805.456 81.7572 810.269 53.3788C810.389 52.7204 810.449 51.9422 810.57 51.1642C811.773 40.8667 810.449 30.0904 806.659 21.0501C804.072 14.7637 798.718 7.99829 794.568 5.84296C797.936 12.4882 799.921 19.1332 800.703 24.0425V24.1633C793.906 7.27993 782.357 0.454071 772.913 -14.3936C772.432 -15.112 771.889 -15.8902 771.468 -16.6685C771.227 -17.0875 771.048 -17.5069 770.807 -17.9259C770.446 -18.7042 770.084 -19.4834 769.904 -20.3216C769.903 -20.3811 769.844 -20.4404 769.784 -20.4406H769.605C756.25 -12.6575 750.655 1.05274 749.272 9.73396C745.121 9.97342 741.031 10.9909 737.301 12.7867C736.579 13.0861 736.279 13.9259 736.519 14.6444C736.82 15.4819 737.783 15.9003 738.564 15.5412C741.813 13.9848 745.422 13.0866 749.031 12.8471H749.332C749.813 12.7874 750.355 12.7867 750.836 12.7867C753.843 12.7269 756.671 13.1474 759.498 13.9855L759.859 14.1045C760.461 14.2243 760.882 14.4632 761.363 14.4632C761.664 14.7027 762.024 14.823 762.325 14.9427L763.168 15.3014C763.589 15.481 764.009 15.6618 764.37 15.8413C764.551 15.961 764.732 16.02 764.912 16.1397C765.333 16.379 765.874 16.5592 766.114 16.7985C766.355 16.9182 766.596 17.0979 766.836 17.2177C771.227 19.9117 774.897 23.624 777.363 28.0543C774.175 25.8392 768.401 23.6246 762.867 24.5824C783.752 35.0339 779.067 69.8702 751.779 71.0457L751.78 99.5035ZM711.36 7.67133V18.9161M701.02 60.1469C707.913 68.2681 727.34 79.8252 749.9 79.8252" stroke="white" stroke-opacity="0.25" stroke-width="2" stroke-linecap="round"/>
</g>
<defs>
<linearGradient id="paint0_linear_27_2" x1="0" y1="0" x2="781.706" y2="182.265" gradientUnits="userSpaceOnUse">
<stop stop-color="#26A6F0"/>
<stop offset="1" stop-color="#0956D3"/>
</linearGradient>
<clipPath id="clip0_27_2">
<rect width="800" height="80" fill="white"/>
</clipPath>
</defs>
</svg>
